{
	"asset":{
		"generator":"Khronos glTF Blender I/O v4.0.44",
		"version":"2.0"
	},
	"extensionsUsed":[
		"KHR_materials_unlit",
		"EXT_texture_webp"
	],
	"extensionsRequired":[
		"EXT_texture_webp"
	],
	"scene":0,
	"scenes":[
		{
			"name":"Scene",
			"nodes":[
				0
			]
		}
	],
	"nodes":[
		{
			"mesh":0,
			"name":"room",
			"translation":[
				0,
				3.356577157974243,
				-3.3399999141693115
			]
		}
	],
	"materials":[
		{
			"doubleSided":false,
			"extensions":{
				"KHR_materials_unlit":{}
			},
			"name":"Paper",
			"pbrMetallicRoughness":{
				"baseColorTexture":{
					"index":0
				},
				"metallicFactor":0,
				"roughnessFactor":0.9
			}
		}
	],
	"meshes":[
		{
			"name":"model",
			"primitives":[
				{
					"attributes":{
						"POSITION":0,
						"NORMAL":1,
						"TEXCOORD_0":2,
						"TEXCOORD_1":3
					},
					"indices":4,
					"material":0
				}
			]
		}
	],
	"textures":[
		{
			"extensions":{
				"EXT_texture_webp":{
					"source":0
				}
			},
			"sampler":0
		}
	],
	"images":[
		{
			"mimeType":"image/webp",
			"name":"room",
			"uri":"textures/room.webp"
		}
	],
	"accessors":[
		{
			"bufferView":0,
			"componentType":5126,
			"count":27473,
			"max":[
				5.953965663909912,
				2.014859199523926,
				6.873690605163574
			],
			"min":[
				-5.953965663909912,
				-3.3565773963928223,
				-0.15287631750106812
			],
			"type":"VEC3"
		},
		{
			"bufferView":1,
			"componentType":5126,
			"count":27473,
			"type":"VEC3"
		},
		{
			"bufferView":2,
			"componentType":5126,
			"count":27473,
			"type":"VEC2"
		},
		{
			"bufferView":3,
			"componentType":5126,
			"count":27473,
			"type":"VEC2"
		},
		{
			"bufferView":4,
			"componentType":5123,
			"count":95532,
			"type":"SCALAR"
		}
	],
	"bufferViews":[
		{
			"buffer":0,
			"byteLength":329676,
			"byteOffset":0,
			"target":34962
		},
		{
			"buffer":0,
			"byteLength":329676,
			"byteOffset":329676,
			"target":34962
		},
		{
			"buffer":0,
			"byteLength":219784,
			"byteOffset":659352,
			"target":34962
		},
		{
			"buffer":0,
			"byteLength":219784,
			"byteOffset":879136,
			"target":34962
		},
		{
			"buffer":0,
			"byteLength":191064,
			"byteOffset":1098920,
			"target":34963
		}
	],
	"samplers":[
		{
			"magFilter":9729,
			"minFilter":9987
		}
	],
	"buffers":[
		{
			"byteLength":1289984,
			"uri":"room.bin"
		}
	]
}
