{
	"asset":{
		"generator":"Khronos glTF Blender I/O v4.0.44",
		"version":"2.0"
	},
	"extensionsUsed":[
		"KHR_materials_unlit",
		"EXT_texture_webp"
	],
	"extensionsRequired":[
		"EXT_texture_webp"
	],
	"scene":0,
	"scenes":[
		{
			"name":"Scene",
			"nodes":[
				0
			]
		}
	],
	"nodes":[
		{
			"mesh":0,
			"name":"Bake",
			"rotation":[
				0,
				-0.30975452065467834,
				0,
				0.9508165717124939
			],
			"translation":[
				-1.807323694229126,
				0,
				2.321936845779419
			]
		}
	],
	"materials":[
		{
			"doubleSided":false,
			"extensions":{
				"KHR_materials_unlit":{}
			},
			"name":"Paper",
			"pbrMetallicRoughness":{
				"baseColorTexture":{
					"index":0
				},
				"metallicFactor":0,
				"roughnessFactor":0.9
			}
		},
		{
			"doubleSided":false,
			"extensions":{
				"KHR_materials_unlit":{}
			},
			"name":"The Boy in the Red Vest",
			"pbrMetallicRoughness":{
				"baseColorTexture":{
					"index":1
				},
				"metallicFactor":0,
				"roughnessFactor":0.9
			}
		},
		{
			"doubleSided":false,
			"extensions":{
				"KHR_materials_unlit":{}
			},
			"name":"Saint_joseph",
			"pbrMetallicRoughness":{
				"baseColorTexture":{
					"index":2
				},
				"metallicFactor":0,
				"roughnessFactor":0.9
			}
		},
		{
			"doubleSided":false,
			"extensions":{
				"KHR_materials_unlit":{}
			},
			"name":"Scream",
			"pbrMetallicRoughness":{
				"baseColorTexture":{
					"index":3
				},
				"metallicFactor":0,
				"roughnessFactor":0.9
			}
		},
		{
			"doubleSided":false,
			"extensions":{
				"KHR_materials_unlit":{}
			},
			"name":"Mirror",
			"pbrMetallicRoughness":{
				"baseColorTexture":{
					"index":4
				},
				"metallicFactor":0,
				"roughnessFactor":0.9
			}
		},
		{
			"doubleSided":false,
			"extensions":{
				"KHR_materials_unlit":{}
			},
			"name":"carpet",
			"pbrMetallicRoughness":{
				"baseColorTexture":{
					"index":5
				},
				"metallicFactor":0,
				"roughnessFactor":0.9
			}
		}
	],
	"meshes":[
		{
			"name":"Table.002",
			"primitives":[
				{
					"attributes":{
						"POSITION":0,
						"NORMAL":1,
						"TEXCOORD_0":2
					},
					"indices":3,
					"material":0
				},
				{
					"attributes":{
						"POSITION":4,
						"NORMAL":5,
						"TEXCOORD_0":6
					},
					"indices":7,
					"material":1
				},
				{
					"attributes":{
						"POSITION":8,
						"NORMAL":9,
						"TEXCOORD_0":10
					},
					"indices":11,
					"material":2
				},
				{
					"attributes":{
						"POSITION":12,
						"NORMAL":13,
						"TEXCOORD_0":14
					},
					"indices":15,
					"material":3
				},
				{
					"attributes":{
						"POSITION":16,
						"NORMAL":17,
						"TEXCOORD_0":18
					},
					"indices":19,
					"material":4
				},
				{
					"attributes":{
						"POSITION":20,
						"NORMAL":21,
						"TEXCOORD_0":22
					},
					"indices":23,
					"material":5
				}
			]
		}
	],
	"textures":[
		{
			"extensions":{
				"EXT_texture_webp":{
					"source":0
				}
			},
			"sampler":0
		},
		{
			"extensions":{
				"EXT_texture_webp":{
					"source":1
				}
			},
			"sampler":0
		},
		{
			"extensions":{
				"EXT_texture_webp":{
					"source":1
				}
			},
			"sampler":0
		},
		{
			"extensions":{
				"EXT_texture_webp":{
					"source":1
				}
			},
			"sampler":0
		},
		{
			"extensions":{
				"EXT_texture_webp":{
					"source":1
				}
			},
			"sampler":0
		},
		{
			"extensions":{
				"EXT_texture_webp":{
					"source":1
				}
			},
			"sampler":0
		}
	],
	"images":[
		{
			"mimeType":"image/webp",
			"name":"Shop_4k",
			"uri":"textures/Shop_4k.webp"
		},
		{
			"mimeType":"image/webp",
			"name":"Painting",
			"uri":"textures/Painting.webp"
		}
	],
	"accessors":[
		{
			"bufferView":0,
			"componentType":5126,
			"count":53828,
			"max":[
				6.865481853485107,
				5.371436595916748,
				3.256828784942627
			],
			"min":[
				-6.679895401000977,
				-0.03019559383392334,
				-9.138734817504883
			],
			"type":"VEC3"
		},
		{
			"bufferView":1,
			"componentType":5126,
			"count":53828,
			"type":"VEC3"
		},
		{
			"bufferView":2,
			"componentType":5126,
			"count":53828,
			"type":"VEC2"
		},
		{
			"bufferView":3,
			"componentType":5123,
			"count":172635,
			"type":"SCALAR"
		},
		{
			"bufferView":4,
			"componentType":5126,
			"count":24,
			"max":[
				-3.896811008453369,
				2.3694982528686523,
				-3.6322383880615234
			],
			"min":[
				-4.488249778747559,
				1.5742725133895874,
				-4.105893611907959
			],
			"type":"VEC3"
		},
		{
			"bufferView":5,
			"componentType":5126,
			"count":24,
			"type":"VEC3"
		},
		{
			"bufferView":6,
			"componentType":5126,
			"count":24,
			"type":"VEC2"
		},
		{
			"bufferView":7,
			"componentType":5123,
			"count":36,
			"type":"SCALAR"
		},
		{
			"bufferView":8,
			"componentType":5126,
			"count":4,
			"max":[
				-2.3303189277648926,
				3.507791042327881,
				-4.089475631713867
			],
			"min":[
				-3.693922519683838,
				2.368069648742676,
				-5.165218353271484
			],
			"type":"VEC3"
		},
		{
			"bufferView":9,
			"componentType":5126,
			"count":4,
			"type":"VEC3"
		},
		{
			"bufferView":10,
			"componentType":5126,
			"count":4,
			"type":"VEC2"
		},
		{
			"bufferView":11,
			"componentType":5123,
			"count":6,
			"type":"SCALAR"
		},
		{
			"bufferView":12,
			"componentType":5126,
			"count":4,
			"max":[
				-1.8831185102462769,
				0.9907883405685425,
				-3.7673652172088623
			],
			"min":[
				-2.1201083660125732,
				0.15016981959342957,
				-4.391787052154541
			],
			"type":"VEC3"
		},
		{
			"bufferView":13,
			"componentType":5126,
			"count":4,
			"type":"VEC3"
		},
		{
			"bufferView":14,
			"componentType":5126,
			"count":4,
			"type":"VEC2"
		},
		{
			"bufferView":15,
			"componentType":5123,
			"count":6,
			"type":"SCALAR"
		},
		{
			"bufferView":16,
			"componentType":5126,
			"count":28,
			"max":[
				-0.35874059796333313,
				3.341722249984741,
				-5.968348979949951
			],
			"min":[
				-1.165001630783081,
				1.8196080923080444,
				-6.573129653930664
			],
			"type":"VEC3"
		},
		{
			"bufferView":17,
			"componentType":5126,
			"count":28,
			"type":"VEC3"
		},
		{
			"bufferView":18,
			"componentType":5126,
			"count":28,
			"type":"VEC2"
		},
		{
			"bufferView":19,
			"componentType":5123,
			"count":78,
			"type":"SCALAR"
		},
		{
			"bufferView":20,
			"componentType":5126,
			"count":24,
			"max":[
				1.6602972745895386,
				0.004772215150296688,
				-2.042116165161133
			],
			"min":[
				-1.0523536205291748,
				0.000699999975040555,
				-4.06838321685791
			],
			"type":"VEC3"
		},
		{
			"bufferView":21,
			"componentType":5126,
			"count":24,
			"type":"VEC3"
		},
		{
			"bufferView":22,
			"componentType":5126,
			"count":24,
			"type":"VEC2"
		},
		{
			"bufferView":23,
			"componentType":5123,
			"count":36,
			"type":"SCALAR"
		}
	],
	"bufferViews":[
		{
			"buffer":0,
			"byteLength":645936,
			"byteOffset":0,
			"target":34962
		},
		{
			"buffer":0,
			"byteLength":645936,
			"byteOffset":645936,
			"target":34962
		},
		{
			"buffer":0,
			"byteLength":430624,
			"byteOffset":1291872,
			"target":34962
		},
		{
			"buffer":0,
			"byteLength":345270,
			"byteOffset":1722496,
			"target":34963
		},
		{
			"buffer":0,
			"byteLength":288,
			"byteOffset":2067768,
			"target":34962
		},
		{
			"buffer":0,
			"byteLength":288,
			"byteOffset":2068056,
			"target":34962
		},
		{
			"buffer":0,
			"byteLength":192,
			"byteOffset":2068344,
			"target":34962
		},
		{
			"buffer":0,
			"byteLength":72,
			"byteOffset":2068536,
			"target":34963
		},
		{
			"buffer":0,
			"byteLength":48,
			"byteOffset":2068608,
			"target":34962
		},
		{
			"buffer":0,
			"byteLength":48,
			"byteOffset":2068656,
			"target":34962
		},
		{
			"buffer":0,
			"byteLength":32,
			"byteOffset":2068704,
			"target":34962
		},
		{
			"buffer":0,
			"byteLength":12,
			"byteOffset":2068736,
			"target":34963
		},
		{
			"buffer":0,
			"byteLength":48,
			"byteOffset":2068748,
			"target":34962
		},
		{
			"buffer":0,
			"byteLength":48,
			"byteOffset":2068796,
			"target":34962
		},
		{
			"buffer":0,
			"byteLength":32,
			"byteOffset":2068844,
			"target":34962
		},
		{
			"buffer":0,
			"byteLength":12,
			"byteOffset":2068876,
			"target":34963
		},
		{
			"buffer":0,
			"byteLength":336,
			"byteOffset":2068888,
			"target":34962
		},
		{
			"buffer":0,
			"byteLength":336,
			"byteOffset":2069224,
			"target":34962
		},
		{
			"buffer":0,
			"byteLength":224,
			"byteOffset":2069560,
			"target":34962
		},
		{
			"buffer":0,
			"byteLength":156,
			"byteOffset":2069784,
			"target":34963
		},
		{
			"buffer":0,
			"byteLength":288,
			"byteOffset":2069940,
			"target":34962
		},
		{
			"buffer":0,
			"byteLength":288,
			"byteOffset":2070228,
			"target":34962
		},
		{
			"buffer":0,
			"byteLength":192,
			"byteOffset":2070516,
			"target":34962
		},
		{
			"buffer":0,
			"byteLength":72,
			"byteOffset":2070708,
			"target":34963
		}
	],
	"samplers":[
		{
			"magFilter":9729,
			"minFilter":9987
		}
	],
	"buffers":[
		{
			"byteLength":2070780,
			"uri":"shop.bin"
		}
	]
}
