{
	"asset":{
		"generator":"Khronos glTF Blender I/O v4.0.44",
		"version":"2.0"
	},
	"extensionsUsed":[
		"KHR_materials_unlit",
		"EXT_texture_webp"
	],
	"extensionsRequired":[
		"EXT_texture_webp"
	],
	"scene":0,
	"scenes":[
		{
			"name":"Scene",
			"nodes":[
				0
			]
		}
	],
	"nodes":[
		{
			"mesh":0,
			"name":"Bar.001",
			"translation":[
				-3.799999952316284,
				0.800000011920929,
				-2.4100000858306885
			]
		}
	],
	"materials":[
		{
			"doubleSided":false,
			"extensions":{
				"KHR_materials_unlit":{}
			},
			"name":"Paper",
			"pbrMetallicRoughness":{
				"baseColorTexture":{
					"index":0
				},
				"metallicFactor":0,
				"roughnessFactor":0.9
			}
		},
		{
			"doubleSided":false,
			"extensions":{
				"KHR_materials_unlit":{}
			},
			"name":"Painting_sainte_catherine",
			"pbrMetallicRoughness":{
				"baseColorTexture":{
					"index":1
				},
				"metallicFactor":0,
				"roughnessFactor":0.9
			}
		},
		{
			"doubleSided":false,
			"extensions":{
				"KHR_materials_unlit":{}
			},
			"name":"Painting_allegorie_conjugale",
			"pbrMetallicRoughness":{
				"baseColorTexture":{
					"index":2
				},
				"metallicFactor":0,
				"roughnessFactor":0.9
			}
		},
		{
			"alphaMode":"BLEND",
			"doubleSided":false,
			"extensions":{
				"KHR_materials_unlit":{}
			},
			"name":"Gold.001",
			"pbrMetallicRoughness":{
				"baseColorTexture":{
					"index":3
				},
				"metallicFactor":0,
				"roughnessFactor":0.9
			}
		},
		{
			"doubleSided":false,
			"extensions":{
				"KHR_materials_unlit":{}
			},
			"name":"Paper.frame",
			"pbrMetallicRoughness":{
				"baseColorTexture":{
					"index":4
				},
				"metallicFactor":0,
				"roughnessFactor":0.9
			}
		}
	],
	"meshes":[
		{
			"name":"Cylinder.001",
			"primitives":[
				{
					"attributes":{
						"POSITION":0,
						"NORMAL":1,
						"TEXCOORD_0":2,
						"TEXCOORD_1":3
					},
					"indices":4,
					"material":0
				},
				{
					"attributes":{
						"POSITION":5,
						"NORMAL":6,
						"TEXCOORD_0":7,
						"TEXCOORD_1":8
					},
					"indices":9,
					"material":1
				},
				{
					"attributes":{
						"POSITION":10,
						"NORMAL":11,
						"TEXCOORD_0":12,
						"TEXCOORD_1":13
					},
					"indices":9,
					"material":2
				},
				{
					"attributes":{
						"POSITION":14,
						"NORMAL":15,
						"TEXCOORD_0":16,
						"TEXCOORD_1":17
					},
					"indices":18,
					"material":3
				},
				{
					"attributes":{
						"POSITION":19,
						"NORMAL":20,
						"TEXCOORD_0":21,
						"TEXCOORD_1":22
					},
					"indices":23,
					"material":4
				}
			]
		}
	],
	"textures":[
		{
			"extensions":{
				"EXT_texture_webp":{
					"source":0
				}
			},
			"sampler":0
		},
		{
			"extensions":{
				"EXT_texture_webp":{
					"source":1
				}
			},
			"sampler":0
		},
		{
			"extensions":{
				"EXT_texture_webp":{
					"source":1
				}
			},
			"sampler":0
		},
		{
			"extensions":{
				"EXT_texture_webp":{
					"source":1
				}
			},
			"sampler":0
		},
		{
			"extensions":{
				"EXT_texture_webp":{
					"source":1
				}
			},
			"sampler":0
		}
	],
	"images":[
		{
			"mimeType":"image/webp",
			"name":"Louvre",
			"uri":"textures/Louvre.webp"
		},
		{
			"mimeType":"image/webp",
			"name":"Painting",
			"uri":"textures/Painting.webp"
		}
	],
	"accessors":[
		{
			"bufferView":0,
			"componentType":5126,
			"count":10899,
			"max":[
				9.753965377807617,
				5.043732643127441,
				5.739596366882324
			],
			"min":[
				-2.153965711593628,
				-0.8000001907348633,
				-1.082876205444336
			],
			"type":"VEC3"
		},
		{
			"bufferView":1,
			"componentType":5126,
			"count":10899,
			"type":"VEC3"
		},
		{
			"bufferView":2,
			"componentType":5126,
			"count":10899,
			"type":"VEC2"
		},
		{
			"bufferView":3,
			"componentType":5126,
			"count":10899,
			"type":"VEC2"
		},
		{
			"bufferView":4,
			"componentType":5123,
			"count":25137,
			"type":"SCALAR"
		},
		{
			"bufferView":5,
			"componentType":5126,
			"count":4,
			"max":[
				6.8279619216918945,
				2.1046385765075684,
				-0.846490204334259
			],
			"min":[
				5.16159725189209,
				0.3984995484352112,
				-0.9105412364006042
			],
			"type":"VEC3"
		},
		{
			"bufferView":6,
			"componentType":5126,
			"count":4,
			"type":"VEC3"
		},
		{
			"bufferView":7,
			"componentType":5126,
			"count":4,
			"type":"VEC2"
		},
		{
			"bufferView":8,
			"componentType":5126,
			"count":4,
			"type":"VEC2"
		},
		{
			"bufferView":9,
			"componentType":5123,
			"count":6,
			"type":"SCALAR"
		},
		{
			"bufferView":10,
			"componentType":5126,
			"count":4,
			"max":[
				2.3721413612365723,
				2.188025951385498,
				-0.8309268355369568
			],
			"min":[
				0.8279266357421875,
				0.4593992233276367,
				-0.8867506384849548
			],
			"type":"VEC3"
		},
		{
			"bufferView":11,
			"componentType":5126,
			"count":4,
			"type":"VEC3"
		},
		{
			"bufferView":12,
			"componentType":5126,
			"count":4,
			"type":"VEC2"
		},
		{
			"bufferView":13,
			"componentType":5126,
			"count":4,
			"type":"VEC2"
		},
		{
			"bufferView":14,
			"componentType":5126,
			"count":1218,
			"max":[
				4.330588340759277,
				1.9086772203445435,
				-0.7722558975219727
			],
			"min":[
				3.26941180229187,
				0.4941149950027466,
				-0.8965917825698853
			],
			"type":"VEC3"
		},
		{
			"bufferView":15,
			"componentType":5126,
			"count":1218,
			"type":"VEC3"
		},
		{
			"bufferView":16,
			"componentType":5126,
			"count":1218,
			"type":"VEC2"
		},
		{
			"bufferView":17,
			"componentType":5126,
			"count":1218,
			"type":"VEC2"
		},
		{
			"bufferView":18,
			"componentType":5123,
			"count":2454,
			"type":"SCALAR"
		},
		{
			"bufferView":19,
			"componentType":5126,
			"count":176,
			"max":[
				6.998295783996582,
				2.2850825786590576,
				-0.7369107007980347
			],
			"min":[
				0.6908742785453796,
				0.2795202136039734,
				-0.9148005247116089
			],
			"type":"VEC3"
		},
		{
			"bufferView":20,
			"componentType":5126,
			"count":176,
			"type":"VEC3"
		},
		{
			"bufferView":21,
			"componentType":5126,
			"count":176,
			"type":"VEC2"
		},
		{
			"bufferView":22,
			"componentType":5126,
			"count":176,
			"type":"VEC2"
		},
		{
			"bufferView":23,
			"componentType":5123,
			"count":264,
			"type":"SCALAR"
		}
	],
	"bufferViews":[
		{
			"buffer":0,
			"byteLength":130788,
			"byteOffset":0,
			"target":34962
		},
		{
			"buffer":0,
			"byteLength":130788,
			"byteOffset":130788,
			"target":34962
		},
		{
			"buffer":0,
			"byteLength":87192,
			"byteOffset":261576,
			"target":34962
		},
		{
			"buffer":0,
			"byteLength":87192,
			"byteOffset":348768,
			"target":34962
		},
		{
			"buffer":0,
			"byteLength":50274,
			"byteOffset":435960,
			"target":34963
		},
		{
			"buffer":0,
			"byteLength":48,
			"byteOffset":486236,
			"target":34962
		},
		{
			"buffer":0,
			"byteLength":48,
			"byteOffset":486284,
			"target":34962
		},
		{
			"buffer":0,
			"byteLength":32,
			"byteOffset":486332,
			"target":34962
		},
		{
			"buffer":0,
			"byteLength":32,
			"byteOffset":486364,
			"target":34962
		},
		{
			"buffer":0,
			"byteLength":12,
			"byteOffset":486396,
			"target":34963
		},
		{
			"buffer":0,
			"byteLength":48,
			"byteOffset":486408,
			"target":34962
		},
		{
			"buffer":0,
			"byteLength":48,
			"byteOffset":486456,
			"target":34962
		},
		{
			"buffer":0,
			"byteLength":32,
			"byteOffset":486504,
			"target":34962
		},
		{
			"buffer":0,
			"byteLength":32,
			"byteOffset":486536,
			"target":34962
		},
		{
			"buffer":0,
			"byteLength":14616,
			"byteOffset":486568,
			"target":34962
		},
		{
			"buffer":0,
			"byteLength":14616,
			"byteOffset":501184,
			"target":34962
		},
		{
			"buffer":0,
			"byteLength":9744,
			"byteOffset":515800,
			"target":34962
		},
		{
			"buffer":0,
			"byteLength":9744,
			"byteOffset":525544,
			"target":34962
		},
		{
			"buffer":0,
			"byteLength":4908,
			"byteOffset":535288,
			"target":34963
		},
		{
			"buffer":0,
			"byteLength":2112,
			"byteOffset":540196,
			"target":34962
		},
		{
			"buffer":0,
			"byteLength":2112,
			"byteOffset":542308,
			"target":34962
		},
		{
			"buffer":0,
			"byteLength":1408,
			"byteOffset":544420,
			"target":34962
		},
		{
			"buffer":0,
			"byteLength":1408,
			"byteOffset":545828,
			"target":34962
		},
		{
			"buffer":0,
			"byteLength":528,
			"byteOffset":547236,
			"target":34963
		}
	],
	"samplers":[
		{
			"magFilter":9729,
			"minFilter":9987
		}
	],
	"buffers":[
		{
			"byteLength":547764,
			"uri":"louvre.bin"
		}
	]
}
