{
	"asset":{
		"generator":"Khronos glTF Blender I/O v4.0.44",
		"version":"2.0"
	},
	"extensionsUsed":[
		"KHR_materials_unlit",
		"EXT_texture_webp"
	],
	"extensionsRequired":[
		"EXT_texture_webp"
	],
	"scene":0,
	"scenes":[
		{
			"name":"Scene",
			"nodes":[
				0
			]
		}
	],
	"nodes":[
		{
			"mesh":0,
			"name":"louvre",
			"rotation":[
				0.013139561749994755,
				0,
				0,
				0.9999136924743652
			],
			"scale":[
				0.9846696853637695,
				0.9855337738990784,
				0.9855337738990784
			],
			"translation":[
				0,
				1.994000792503357,
				-3.2391600608825684
			]
		}
	],
	"materials":[
		{
			"doubleSided":false,
			"extensions":{
				"KHR_materials_unlit":{}
			},
			"name":"Paper",
			"pbrMetallicRoughness":{
				"baseColorTexture":{
					"index":0,
					"texCoord":1
				},
				"metallicFactor":0,
				"roughnessFactor":0.9
			}
		},
		{
			"alphaMode":"BLEND",
			"doubleSided":false,
			"extensions":{
				"KHR_materials_unlit":{}
			},
			"name":"Gold.001",
			"pbrMetallicRoughness":{
				"baseColorTexture":{
					"index":1,
					"texCoord":1
				},
				"metallicFactor":0,
				"roughnessFactor":0.9
			}
		}
	],
	"meshes":[
		{
			"name":"model",
			"primitives":[
				{
					"attributes":{
						"POSITION":0,
						"NORMAL":1,
						"TEXCOORD_0":2,
						"TEXCOORD_1":3
					},
					"indices":4,
					"material":0
				},
				{
					"attributes":{
						"POSITION":5,
						"NORMAL":6,
						"TEXCOORD_0":7,
						"TEXCOORD_1":8
					},
					"indices":9,
					"material":1
				},
				{
					"attributes":{
						"POSITION":10,
						"NORMAL":11,
						"TEXCOORD_0":12,
						"TEXCOORD_1":13
					},
					"indices":14,
					"material":1
				}
			]
		}
	],
	"textures":[
		{
			"extensions":{
				"EXT_texture_webp":{
					"source":0
				}
			},
			"sampler":0
		},
		{
			"extensions":{
				"EXT_texture_webp":{
					"source":1
				}
			},
			"sampler":0
		}
	],
	"images":[
		{
			"mimeType":"image/webp",
			"name":"Louvre_2k",
			"uri":"textures/Louvre_2k.webp"
		},
		{
			"mimeType":"image/webp",
			"name":"Louvre2_2k",
			"uri":"textures/Louvre2_2k.webp"
		}
	],
	"accessors":[
		{
			"bufferView":0,
			"componentType":5126,
			"count":1121,
			"max":[
				6.0466628074646,
				3.42341685295105,
				6.716039657592773
			],
			"min":[
				-6.0466628074646,
				-2.0249786376953125,
				-0.2735089659690857
			],
			"type":"VEC3"
		},
		{
			"bufferView":1,
			"componentType":5126,
			"count":1121,
			"type":"VEC3"
		},
		{
			"bufferView":2,
			"componentType":5126,
			"count":1121,
			"type":"VEC2"
		},
		{
			"bufferView":3,
			"componentType":5126,
			"count":1121,
			"type":"VEC2"
		},
		{
			"bufferView":4,
			"componentType":5123,
			"count":2946,
			"type":"SCALAR"
		},
		{
			"bufferView":5,
			"componentType":5126,
			"count":86,
			"max":[
				0.535877525806427,
				0.7227787375450134,
				0.0678812712430954
			],
			"min":[
				-0.535940408706665,
				-0.7230793237686157,
				-0.06787335872650146
			],
			"type":"VEC3"
		},
		{
			"bufferView":6,
			"componentType":5126,
			"count":86,
			"type":"VEC3"
		},
		{
			"bufferView":7,
			"componentType":5126,
			"count":86,
			"type":"VEC2"
		},
		{
			"bufferView":8,
			"componentType":5126,
			"count":86,
			"type":"VEC2"
		},
		{
			"bufferView":9,
			"componentType":5123,
			"count":156,
			"type":"SCALAR"
		},
		{
			"bufferView":10,
			"componentType":5126,
			"count":8,
			"max":[
				0.41528448462486267,
				0.6021856665611267,
				0.0678812712430954
			],
			"min":[
				-0.4153473973274231,
				-0.602486252784729,
				-0.06787335872650146
			],
			"type":"VEC3"
		},
		{
			"bufferView":11,
			"componentType":5126,
			"count":8,
			"type":"VEC3"
		},
		{
			"bufferView":12,
			"componentType":5126,
			"count":8,
			"type":"VEC2"
		},
		{
			"bufferView":13,
			"componentType":5126,
			"count":8,
			"type":"VEC2"
		},
		{
			"bufferView":14,
			"componentType":5123,
			"count":12,
			"type":"SCALAR"
		}
	],
	"bufferViews":[
		{
			"buffer":0,
			"byteLength":13452,
			"byteOffset":0,
			"target":34962
		},
		{
			"buffer":0,
			"byteLength":13452,
			"byteOffset":13452,
			"target":34962
		},
		{
			"buffer":0,
			"byteLength":8968,
			"byteOffset":26904,
			"target":34962
		},
		{
			"buffer":0,
			"byteLength":8968,
			"byteOffset":35872,
			"target":34962
		},
		{
			"buffer":0,
			"byteLength":5892,
			"byteOffset":44840,
			"target":34963
		},
		{
			"buffer":0,
			"byteLength":1032,
			"byteOffset":50732,
			"target":34962
		},
		{
			"buffer":0,
			"byteLength":1032,
			"byteOffset":51764,
			"target":34962
		},
		{
			"buffer":0,
			"byteLength":688,
			"byteOffset":52796,
			"target":34962
		},
		{
			"buffer":0,
			"byteLength":688,
			"byteOffset":53484,
			"target":34962
		},
		{
			"buffer":0,
			"byteLength":312,
			"byteOffset":54172,
			"target":34963
		},
		{
			"buffer":0,
			"byteLength":96,
			"byteOffset":54484,
			"target":34962
		},
		{
			"buffer":0,
			"byteLength":96,
			"byteOffset":54580,
			"target":34962
		},
		{
			"buffer":0,
			"byteLength":64,
			"byteOffset":54676,
			"target":34962
		},
		{
			"buffer":0,
			"byteLength":64,
			"byteOffset":54740,
			"target":34962
		},
		{
			"buffer":0,
			"byteLength":24,
			"byteOffset":54804,
			"target":34963
		}
	],
	"samplers":[
		{
			"magFilter":9729,
			"minFilter":9987
		}
	],
	"buffers":[
		{
			"byteLength":54828,
			"uri":"louvre.bin"
		}
	]
}
